<svg xmlns="http://www.w3.org/2000/svg" height="800" width="1200" viewBox="-13.6032 -11.028325 117.8944 66.16995"><path d="M45.111 18.668c.542-5.348 3.452-8.518 3.452-11.6 0-2.244-.834-4.171-3.452-7.068-2.618 2.897-3.453 4.824-3.453 7.068 0 3.082 2.91 6.252 3.453 11.6m-5.638-.679c-1.379 1.217-4.076.432-4.076-2.515 0-1.666 1.736-3.087 3.416-3.087 3.318 0 4.832 3.526 4.921 5.166.069 1.294-.517 3.337-2.672 3.364 1.009-.494 1.345-1.708 1.246-2.572-.115-1.024-.771-2.364-2.208-2.364-.797 0-1.398.517-1.398 1.079-.001.499.298.914.771.929m11.279 0c1.379 1.217 4.075.432 4.075-2.515 0-1.666-1.734-3.087-3.414-3.087-3.319 0-4.833 3.526-4.922 5.166-.069 1.294.517 3.337 2.672 3.364-1.011-.494-1.346-1.708-1.247-2.572.115-1.024.771-2.364 2.209-2.364.797 0 1.396.517 1.396 1.079 0 .499-.296.914-.769.929" fill="#EE2D24"/><path fill="#231F20" d="M19.12 26.55h2.464v17.323H19.12zm-3.881 17.323h-2.464V36.33H2.463v7.543H0V26.55h2.463v7.544h10.312V26.55h2.464v17.323m68.059-8.966l7.39 8.966H87.69l-5.891-7.163-5.97 7.163h-3.022l7.467-8.966-6.934-8.357h3.022l5.437 6.604 5.41-6.604h2.998l-6.909 8.357"/><path d="M64.317 26.322c5.716 0 9.322 4.063 9.322 8.889 0 4.674-3.505 8.891-9.373 8.891-5.663 0-9.245-4.191-9.245-8.891 0-4.8 3.684-8.889 9.296-8.889m0 15.494c3.887 0 6.757-2.82 6.757-6.605 0-3.809-2.87-6.604-6.757-6.604-3.859 0-6.73 2.795-6.73 6.604 0 3.785 2.871 6.605 6.73 6.605z" fill="#231F20"/><path fill="none" d="M0 0v44.113h90.688V0"/><path d="M52.745 39.491c-1.215 1.442-3.071 2.325-5.245 2.325-3.862 0-6.732-2.82-6.732-6.605 0-3.809 2.87-6.604 6.732-6.604 2.114 0 3.929.828 5.143 2.197l1.3-2.188c-1.594-1.42-3.792-2.294-6.442-2.294-5.614 0-9.298 4.089-9.298 8.889 0 4.7 3.581 8.891 9.246 8.891 2.772 0 5.017-.941 6.613-2.427l-1.317-2.184m-17.694-9.708c-1.386-1.182-3.075-1.426-4.244-1.426-1.762 0-3.307.783-3.307 2.257 0 3.327 8.853 3.337 8.853 8.849 0 3.59-3.664 4.782-6.485 4.639-1.919-.097-3.354-.471-4.875-1.476v-2.464c1.517.982 2.926 1.503 4.535 1.632 1.806.145 4.393-.28 4.393-2.411 0-3.581-8.928-3.689-8.928-8.438 0-2.82 2.497-4.628 5.534-4.628 1.962 0 3.271.424 4.517 1.135l.007 2.331" fill="#231F20"/></svg>